<?xml version="1.0" standalone="no"?>
<!DOCTYPE svg PUBLIC "-//W3C//DTD SVG 20010904//EN"
 "http://www.w3.org/TR/2001/REC-SVG-20010904/DTD/svg10.dtd">
<svg version="1.0" xmlns="http://www.w3.org/2000/svg"
 width="500.000000pt" height="500.000000pt" viewBox="0 0 500.000000 500.000000"
 preserveAspectRatio="xMidYMid meet">
<metadata>
Created by potrace 1.14, written by Peter Selinger 2001-2017
</metadata>
<g transform="translate(0.000000,500.000000) scale(0.100000,-0.100000)"
fill="#000000" stroke="none">
<path d="M1176 4854 c-52 -19 -104 -52 -139 -89 -30 -32 -74 -115 -81 -155 -2
-14 -5 -154 -5 -312 l-1 -287 -287 -3 c-320 -3 -323 -4 -377 -71 -29 -37 -31
-43 -34 -146 -3 -89 -1 -113 14 -146 22 -44 77 -92 114 -99 14 -2 148 -5 298
-5 l272 -1 0 -195 0 -194 -287 -3 c-320 -3 -323 -4 -377 -71 -31 -38 -31 -40
-31 -155 0 -133 8 -158 68 -206 l39 -31 294 -3 294 -3 0 -194 0 -194 -293 -3
-294 -3 -37 -29 c-57 -43 -76 -93 -76 -204 0 -108 17 -154 77 -199 l36 -28
294 -3 293 -3 0 -194 0 -194 -294 -3 -294 -3 -39 -31 c-56 -46 -67 -75 -71
-190 -4 -118 12 -163 75 -211 l36 -28 294 -3 293 -3 1 -272 c0 -150 3 -283 5
-297 17 -91 92 -185 184 -229 l55 -26 1655 0 1655 0 55 26 c69 33 125 88 159
159 l26 55 0 2125 0 2125 -26 55 c-33 69 -88 125 -159 159 l-55 26 -1645 2
c-1396 1 -1651 -1 -1684 -13z"/>
</g>
</svg>
